<?xml version="1.0" standalone="no"?>
<!DOCTYPE svg PUBLIC "-//W3C//DTD SVG 20010904//EN"
 "http://www.w3.org/TR/2001/REC-SVG-20010904/DTD/svg10.dtd">
<svg version="1.0" xmlns="http://www.w3.org/2000/svg"
 width="500.000000pt" height="500.000000pt" viewBox="0 0 500.000000 500.000000"
 preserveAspectRatio="xMidYMid meet">
<metadata>
Created by potrace 1.11, written by Peter Selinger 2001-2013
</metadata>
<g transform="translate(0.000000,500.000000) scale(0.100000,-0.100000)"
fill="#000000" stroke="none">
<path d="M2395 4953 c-112 -21 -315 -101 -315 -124 0 -4 -9 -11 -21 -14 -24
-8 -1529 -1506 -1529 -1523 0 -6 -6 -17 -14 -24 -26 -26 -86 -165 -105 -244
-27 -112 -23 -296 10 -381 6 -16 10 -29 9 -31 -1 -2 8 -27 20 -57 l22 -55 -24
-62 c-14 -35 -29 -76 -33 -93 -4 -16 -9 -39 -12 -50 -12 -45 -11 -233 2 -291
23 -112 71 -221 132 -303 42 -58 1476 -1485 1524 -1518 222 -151 471 -183 717
-91 63 23 139 64 160 85 7 7 17 13 22 13 11 0 1499 1486 1518 1515 6 11 15 27
19 35 4 8 10 17 13 20 7 5 61 107 59 112 0 2 4 14 9 28 59 156 52 374 -16 539
l-27 66 23 47 c12 26 29 73 38 105 19 69 27 260 13 323 -5 25 -12 56 -15 70
-10 47 -61 156 -99 216 -25 38 -293 313 -765 784 -400 399 -738 734 -751 745
-76 62 -208 124 -314 148 -56 13 -224 19 -270 10z"/>
</g>
</svg>
